<svg width="34" height="34" viewBox="0 0 34 34" fill="none" xmlns="http://www.w3.org/2000/svg">
<g clip-path="url(#clip0_321_210)">
<path d="M16.9858 2.83331C9.16581 2.83331 2.83331 9.17998 2.83331 17C2.83331 24.82 9.16581 31.1666 16.9858 31.1666C24.82 31.1666 31.1666 24.82 31.1666 17C31.1666 9.17998 24.82 2.83331 16.9858 2.83331ZM17 28.3333C10.7383 28.3333 5.66665 23.2616 5.66665 17C5.66665 10.7383 10.7383 5.66665 17 5.66665C23.2616 5.66665 28.3333 10.7383 28.3333 17C28.3333 23.2616 23.2616 28.3333 17 28.3333Z" fill="#323232"/>
<path d="M17.7083 9.91669H15.5833V18.4167L23.0208 22.8792L24.0833 21.1367L17.7083 17.3542V9.91669Z" fill="#323232"/>
</g>
<defs>
<clipPath id="clip0_321_210">
<rect width="34" height="34" fill="white"/>
</clipPath>
</defs>
</svg>
