<svg width="64" height="58" viewBox="0 0 64 58" fill="none" xmlns="http://www.w3.org/2000/svg">
<path d="M0 58H6.4C8.16 58 9.6 56.55 9.6 54.7778V25.7778C9.6 24.0056 8.16 22.5556 6.4 22.5556H0V58ZM63.456 35.0578C63.808 34.2522 64 33.3822 64 32.48V29C64 25.4556 61.12 22.5556 57.6 22.5556H40L42.944 7.57222C43.104 6.86333 43.008 6.09 42.688 5.44556C41.952 3.99556 41.024 2.67444 39.872 1.51444L38.4 0L17.888 20.6544C16.672 21.8789 16 23.5222 16 25.23V50.4922C16 54.6167 19.36 58 23.488 58H49.44C51.68 58 53.792 56.8078 54.944 54.8744L63.456 35.0578Z" fill="#FFD6D6"/>
</svg>
