<svg width="33" height="33" viewBox="0 0 33 33" fill="none" xmlns="http://www.w3.org/2000/svg">
<g clip-path="url(#clip0_321_215)">
<path d="M16.5 2.75C11.1788 2.75 6.875 7.05375 6.875 12.375C6.875 14.7675 7.5625 17.0088 8.81375 19.03C10.12 21.1475 11.8387 22.9625 13.1587 25.08C13.805 26.1112 14.2725 27.0737 14.7675 28.1875C15.125 28.9438 15.4137 30.25 16.5 30.25C17.5863 30.25 17.875 28.9438 18.2188 28.1875C18.7275 27.0737 19.1813 26.1112 19.8275 25.08C21.1475 22.9762 22.8662 21.1613 24.1725 19.03C25.4375 17.0088 26.125 14.7675 26.125 12.375C26.125 7.05375 21.8212 2.75 16.5 2.75ZM16.5 16.1562C14.6025 16.1562 13.0625 14.6162 13.0625 12.7188C13.0625 10.8213 14.6025 9.28125 16.5 9.28125C18.3975 9.28125 19.9375 10.8213 19.9375 12.7188C19.9375 14.6162 18.3975 16.1562 16.5 16.1562Z" fill="#323232"/>
</g>
<defs>
<clipPath id="clip0_321_215">
<rect width="33" height="33" fill="white"/>
</clipPath>
</defs>
</svg>
