<svg width="39" height="39" viewBox="0 0 39 39" fill="none" xmlns="http://www.w3.org/2000/svg">
<g clip-path="url(#clip0_82_1370)">
<path d="M10.6275 8.125C10.725 9.57125 10.9687 10.985 11.3587 12.3338L9.40875 14.2837C8.7425 12.3337 8.32 10.27 8.17375 8.125H10.6275ZM26.65 27.6575C28.0312 28.0475 29.445 28.2912 30.875 28.3887V30.81C28.73 30.6637 26.6663 30.2412 24.7 29.5912L26.65 27.6575ZM12.1875 4.875H6.5C5.60625 4.875 4.875 5.60625 4.875 6.5C4.875 21.7588 17.2412 34.125 32.5 34.125C33.3937 34.125 34.125 33.3937 34.125 32.5V26.8288C34.125 25.935 33.3937 25.2038 32.5 25.2038C30.485 25.2038 28.5188 24.8787 26.6987 24.2775C26.5363 24.2125 26.3575 24.1963 26.195 24.1963C25.7725 24.1963 25.3662 24.3588 25.0413 24.6675L21.4662 28.2425C16.8675 25.8862 13.0975 22.1325 10.7575 17.5337L14.3325 13.9587C14.7875 13.5037 14.9175 12.87 14.7387 12.3013C14.1375 10.4813 13.8125 8.53125 13.8125 6.5C13.8125 5.60625 13.0813 4.875 12.1875 4.875Z" fill="black"/>
</g>
<defs>
<clipPath id="clip0_82_1370">
<rect width="39" height="39" fill="white"/>
</clipPath>
</defs>
</svg>
